<svg width="893" height="290" viewBox="0 0 893 290" fill="none" xmlns="http://www.w3.org/2000/svg">
<path d="M49.0537 60H99.0537V232H49.0537V60ZM109.554 193.75H111.554C119.72 193.75 125.47 193.417 128.804 192.75C132.304 191.917 134.887 190.083 136.554 187.25C138.387 184.25 139.387 179.5 139.554 173C139.887 164.667 140.054 155.667 140.054 146C140.054 136.5 139.887 127.417 139.554 118.75C139.22 112.25 138.137 107.5 136.304 104.5C134.637 101.5 131.887 99.6667 128.054 99C124.22 98.5 118.72 98.25 111.554 98.25H109.554V60H111.554C124.887 60 135.97 60.5833 144.804 61.75C153.804 62.9167 161.22 64.75 167.054 67.25C172.72 69.75 177.22 73.1667 180.554 77.5C183.887 81.8333 186.304 87.25 187.804 93.75C189.137 99.5833 189.97 106.5 190.304 114.5C190.804 122.333 191.054 132.833 191.054 146C191.054 159.333 190.804 169.917 190.304 177.75C189.97 185.583 189.137 192.417 187.804 198.25C186.304 204.75 183.887 210.167 180.554 214.5C177.22 218.833 172.72 222.25 167.054 224.75C161.22 227.25 153.804 229.083 144.804 230.25C135.97 231.417 124.887 232 111.554 232H109.554V193.75ZM257.976 60H262.226L281.976 128.5L253.226 232H203.226L257.976 60ZM314.226 201.5H272.476L282.976 163H302.976L273.476 60H319.226L373.976 232H322.976L314.226 201.5ZM509.106 99.5C503.606 98.8333 493.94 97.9167 480.106 96.75C472.44 96.4167 466.273 96.25 461.606 96.25C455.606 96.25 449.94 96.4167 444.606 96.75V58H450.856C464.523 58 478.69 58.9167 493.356 60.75C498.023 61.4167 503.273 62.3333 509.106 63.5V99.5ZM467.856 181.25C467.856 177.75 467.606 175.25 467.106 173.75C466.606 172.083 465.773 171 464.606 170.5C463.44 169.833 461.44 169.333 458.606 169L427.856 165.25C409.69 163.25 397.44 157.333 391.106 147.5C388.273 143.333 386.356 138.25 385.356 132.25C384.356 126.25 383.856 118.917 383.856 110.25C383.856 91.75 388.606 78.4167 398.106 70.25C405.773 63.5833 417.773 59.6667 434.106 58.5V108.75C434.106 110.917 434.19 112.75 434.356 114.25C434.523 115.75 434.856 116.917 435.356 117.75C435.856 118.75 436.69 119.5 437.856 120C439.023 120.333 440.773 120.583 443.106 120.75L477.606 125C484.773 126 490.606 127.25 495.106 128.75C499.606 130.25 503.44 132.583 506.606 135.75C514.106 143.583 517.856 157.5 517.856 177.5C517.856 198.667 513.19 213.5 503.856 222C499.69 225.833 494.606 228.667 488.606 230.5C482.773 232.167 475.856 233.25 467.856 233.75V181.25ZM454.606 234C437.94 234 422.44 233.25 408.106 231.75C399.606 230.917 393.19 230.083 388.856 229.25V192.75C398.69 193.583 409.94 194.417 422.606 195.25C430.606 195.583 436.273 195.75 439.606 195.75C448.606 195.75 454.523 195.5 457.356 195V234H454.606ZM582.683 60H586.933L606.683 128.5L577.933 232H527.933L582.683 60ZM638.933 201.5H597.183L607.683 163H627.683L598.183 60H643.933L698.683 232H647.683L638.933 201.5ZM715.313 60H765.313V232H715.313V60ZM775.813 140.25H781.813C787.147 140.25 791.063 140.083 793.563 139.75C796.23 139.25 798.313 138.25 799.813 136.75C801.313 135.417 802.23 133.5 802.563 131C803.063 128.333 803.313 124.417 803.313 119.25C803.313 114.083 803.063 110.25 802.563 107.75C802.23 105.083 801.313 103 799.813 101.5C798.313 100.167 796.23 99.3333 793.563 99C790.897 98.5 786.98 98.25 781.813 98.25H775.813V60H796.563C808.897 60 818.897 61.25 826.563 63.75C834.397 66.0833 840.313 69.75 844.313 74.75C848.147 79.4167 850.73 85.3333 852.063 92.5C853.397 99.5 854.063 108.417 854.063 119.25C854.063 129.583 853.397 138.167 852.063 145C850.897 151.833 848.48 157.583 844.813 162.25C840.647 167.583 834.647 171.667 826.813 174.5C819.147 177.167 809.063 178.5 796.563 178.5H775.813V140.25Z" fill="#2069E2"/>
</svg>
