<svg width="1000" height="1000" viewBox="0 0 1000 1000" fill="none" xmlns="http://www.w3.org/2000/svg">
<path fill-rule="evenodd" clip-rule="evenodd" d="M0 40C0 17.9086 17.9086 0 40 0H830C923.888 0 1000 76.1116 1000 170V830C1000 923.888 923.888 1000 830 1000H40C17.9086 1000 0 982.091 0 960V40ZM150 163C150 140.909 167.909 123 190 123H438.284L320.591 427H190C167.909 427 150 409.091 150 387V163ZM507.513 212.756L424.569 427H590.623L507.513 212.756ZM648.036 575H367.272L251.128 875H764.413L648.036 575ZM850 827.117L752.198 575H810C832.091 575 850 592.909 850 615V827.117ZM694.785 427L576.856 123H810C832.091 123 850 140.909 850 163V387C850 409.091 832.091 427 810 427H694.785ZM190 575H263.294L155.078 854.521C151.844 848.747 150 842.089 150 835V615C150 592.909 167.909 575 190 575Z" fill="#3F5BEA"/>
</svg>
